%TF.GenerationSoftware,KiCad,Pcbnew,9.0.8+1*%
%TF.CreationDate,2026-05-20T16:49:38-05:00*%
%TF.ProjectId,satnogs_controller,7361746e-6f67-4735-9f63-6f6e74726f6c,rev?*%
%TF.SameCoordinates,Original*%
%TF.FileFunction,Component,L1,Top*%
%TF.FilePolarity,Positive*%
%FSLAX46Y46*%
G04 Gerber Fmt 4.6, Leading zero omitted, Abs format (unit mm)*
G04 Created by KiCad (PCBNEW 9.0.8+1) date 2026-05-20 16:49:38*
%MOMM*%
%LPD*%
G01*
G04 APERTURE LIST*
%TA.AperFunction,ComponentMain*%
%ADD10C,0.300000*%
%TD*%
%TA.AperFunction,ComponentOutline,Courtyard*%
%ADD11C,0.100000*%
%TD*%
%TA.AperFunction,ComponentPin*%
%ADD12P,0.360000X4X0.000000*%
%TD*%
%TA.AperFunction,ComponentPin*%
%ADD13C,0.100000*%
%TD*%
G04 APERTURE END LIST*
D10*
%TO.C,P1*%
%TO.CFtp,PinHeader_2x03_P2.54mm_Vertical*%
%TO.CVal,~*%
%TO.CLbN,Connector_PinHeader_2.54mm*%
%TO.CMnt,TH*%
%TO.CRot,-90*%
X87844000Y-54170000D03*
D11*
X89609000Y-52405000D02*
X89609000Y-58485000D01*
X80999000Y-58485000D01*
X80999000Y-52405000D01*
X89609000Y-52405000D01*
D12*
%TO.P,P1,1,Pin_1*%
X87844000Y-54170000D03*
D13*
%TO.P,P1,2,Pin_2*%
X87844000Y-56710000D03*
%TO.P,P1,3,Pin_3*%
X85304000Y-54170000D03*
%TO.P,P1,4,Pin_4*%
X85304000Y-56710000D03*
%TO.P,P1,5,Pin_5*%
X82764000Y-54170000D03*
%TO.P,P1,6,Pin_6*%
X82764000Y-56710000D03*
%TD*%
D10*
%TO.C,C3*%
%TO.CFtp,C_0805_2012Metric_Pad1.18x1.45mm_HandSolder*%
%TO.CVal,100n*%
%TO.CLbN,Capacitor_SMD*%
%TO.CMnt,SMD*%
%TO.CRot,-90*%
X88050000Y-63579000D03*
D11*
X89025000Y-61704000D02*
X89025000Y-65454000D01*
X87075000Y-65454000D01*
X87075000Y-61704000D01*
X89025000Y-61704000D01*
D12*
%TO.P,C3,1*%
X88050000Y-62541500D03*
D13*
%TO.P,C3,2*%
X88050000Y-64616500D03*
%TD*%
D10*
%TO.C,C4*%
%TO.CFtp,C_0805_2012Metric_Pad1.18x1.45mm_HandSolder*%
%TO.CVal,100n*%
%TO.CLbN,Capacitor_SMD*%
%TO.CMnt,SMD*%
%TO.CRot,90*%
X81217400Y-63604400D03*
D11*
X82192400Y-61729400D02*
X82192400Y-65479400D01*
X80242400Y-65479400D01*
X80242400Y-61729400D01*
X82192400Y-61729400D01*
D12*
%TO.P,C4,1*%
X81217400Y-64641900D03*
D13*
%TO.P,C4,2*%
X81217400Y-62566900D03*
%TD*%
D10*
%TO.C,R8*%
%TO.CFtp,R_0805_2012Metric_Pad1.20x1.40mm_HandSolder*%
%TO.CVal,200*%
%TO.CLbN,Resistor_SMD*%
%TO.CMnt,SMD*%
%TO.CRot,-90*%
X83478000Y-63599000D03*
D11*
X84423000Y-61754000D02*
X84423000Y-65444000D01*
X82533000Y-65444000D01*
X82533000Y-61754000D01*
X84423000Y-61754000D01*
D12*
%TO.P,R8,1*%
X83478000Y-62599000D03*
D13*
%TO.P,R8,2*%
X83478000Y-64599000D03*
%TD*%
D10*
%TO.C,C2*%
%TO.CFtp,C_0805_2012Metric_Pad1.18x1.45mm_HandSolder*%
%TO.CVal,100n*%
%TO.CLbN,Capacitor_SMD*%
%TO.CMnt,SMD*%
%TO.CRot,-90*%
X71184000Y-64214000D03*
D11*
X72159000Y-62339000D02*
X72159000Y-66089000D01*
X70209000Y-66089000D01*
X70209000Y-62339000D01*
X72159000Y-62339000D01*
D12*
%TO.P,C2,1*%
X71184000Y-63176500D03*
D13*
%TO.P,C2,2*%
X71184000Y-65251500D03*
%TD*%
D10*
%TO.C,C7*%
%TO.CFtp,CP_Elec_6.3x5.3*%
%TO.CVal,100u*%
%TO.CLbN,Capacitor_SMD*%
%TO.CMnt,SMD*%
%TO.CRot,0*%
X98768000Y-79664200D03*
D11*
X102313000Y-76119200D02*
X102313000Y-78619200D01*
X103563000Y-78619200D01*
X103563000Y-80709200D01*
X102313000Y-80709200D01*
X102313000Y-83209200D01*
X96370072Y-83209200D01*
X95223000Y-82062128D01*
X95223000Y-80709200D01*
X93973000Y-80709200D01*
X93973000Y-78619200D01*
X95223000Y-78619200D01*
X95223000Y-77266272D01*
X96370072Y-76119200D01*
X102313000Y-76119200D01*
D12*
%TO.P,C7,1*%
X95968000Y-79664200D03*
D13*
%TO.P,C7,2*%
X101568000Y-79664200D03*
%TD*%
D10*
%TO.C,C1*%
%TO.CFtp,C_0805_2012Metric_Pad1.18x1.45mm_HandSolder*%
%TO.CVal,100n*%
%TO.CLbN,Capacitor_SMD*%
%TO.CMnt,SMD*%
%TO.CRot,-90*%
X61900000Y-93375000D03*
D11*
X62875000Y-91500000D02*
X62875000Y-95250000D01*
X60925000Y-95250000D01*
X60925000Y-91500000D01*
X62875000Y-91500000D01*
D12*
%TO.P,C1,1*%
X61900000Y-92337500D03*
D13*
%TO.P,C1,2*%
X61900000Y-94412500D03*
%TD*%
D10*
%TO.C,U2*%
%TO.CFtp,SOT-23-5_HandSoldering*%
%TO.CVal,TC74*%
%TO.CLbN,Package_TO_SOT_SMD*%
%TO.CMnt,SMD*%
%TO.CRot,90*%
X64707000Y-64214000D03*
D11*
X66502000Y-61839000D02*
X66502000Y-66589000D01*
X62912000Y-66589000D01*
X62912000Y-61839000D01*
X66502000Y-61839000D01*
D12*
%TO.P,U2,1,NC*%
X63757000Y-65564000D03*
D13*
%TO.P,U2,2,GND*%
X64707000Y-65564000D03*
%TO.P,U2,3,VDD*%
X65657000Y-65564000D03*
%TO.P,U2,4,SCLK*%
X65657000Y-62864000D03*
%TO.P,U2,5,SDA*%
X63757000Y-62864000D03*
%TD*%
D10*
%TO.C,U1*%
%TO.CFtp,TSSOP-8_3x3mm_P0.65mm*%
%TO.CVal,PCA9540B*%
%TO.CLbN,Package_SO*%
%TO.CMnt,SMD*%
%TO.CRot,90*%
X74460600Y-64747400D03*
D11*
X76255600Y-61802400D02*
X76255600Y-67692400D01*
X72665600Y-67692400D01*
X72665600Y-61802400D01*
X76255600Y-61802400D01*
D12*
%TO.P,U1,1,SCL*%
X73485600Y-66897400D03*
D13*
%TO.P,U1,2,SDA*%
X74135600Y-66897400D03*
%TO.P,U1,3,VDD*%
X74785600Y-66897400D03*
%TO.P,U1,4,SD0*%
X75435600Y-66897400D03*
%TO.P,U1,5,SC0*%
X75435600Y-62597400D03*
%TO.P,U1,6,VSS*%
X74785600Y-62597400D03*
%TO.P,U1,7,SD1*%
X74135600Y-62597400D03*
%TO.P,U1,8,SC1*%
X73485600Y-62597400D03*
%TD*%
D10*
%TO.C,P3*%
%TO.CFtp,TerminalBlock_Phoenix_MKDS-1\u002C5-4_1x04_P5.00mm_Horizontal*%
%TO.CVal,~*%
%TO.CLbN,TerminalBlock_Phoenix*%
%TO.CMnt,TH*%
%TO.CRot,180*%
X134226400Y-56492400D03*
D11*
X137221400Y-51397400D02*
X137221400Y-62197400D01*
X116231400Y-62197400D01*
X116231400Y-51397400D01*
X137221400Y-51397400D01*
D12*
%TO.P,P3,1,Pin_1*%
X134226400Y-56492400D03*
D13*
%TO.P,P3,2,Pin_2*%
X129226400Y-56492400D03*
%TO.P,P3,3,Pin_3*%
X124226400Y-56492400D03*
%TO.P,P3,4,Pin_4*%
X119226400Y-56492400D03*
%TD*%
D10*
%TO.C,P2*%
%TO.CFtp,TerminalBlock_Phoenix_MKDS-1\u002C5-4_1x04_P5.00mm_Horizontal*%
%TO.CVal,~*%
%TO.CLbN,TerminalBlock_Phoenix*%
%TO.CMnt,TH*%
%TO.CRot,180*%
X111341000Y-56543200D03*
D11*
X114336000Y-51448200D02*
X114336000Y-62248200D01*
X93346000Y-62248200D01*
X93346000Y-51448200D01*
X114336000Y-51448200D01*
D12*
%TO.P,P2,1,Pin_1*%
X111341000Y-56543200D03*
D13*
%TO.P,P2,2,Pin_2*%
X106341000Y-56543200D03*
%TO.P,P2,3,Pin_3*%
X101341000Y-56543200D03*
%TO.P,P2,4,Pin_4*%
X96341000Y-56543200D03*
%TD*%
D10*
%TO.C,C5*%
%TO.CFtp,C_0805_2012Metric_Pad1.18x1.45mm_HandSolder*%
%TO.CVal,100n*%
%TO.CLbN,Capacitor_SMD*%
%TO.CMnt,SMD*%
%TO.CRot,90*%
X68009000Y-64214000D03*
D11*
X68984000Y-62339000D02*
X68984000Y-66089000D01*
X67034000Y-66089000D01*
X67034000Y-62339000D01*
X68984000Y-62339000D01*
D12*
%TO.P,C5,1*%
X68009000Y-65251500D03*
D13*
%TO.P,C5,2*%
X68009000Y-63176500D03*
%TD*%
D10*
%TO.C,P4*%
%TO.CFtp,PinHeader_2x05_P2.54mm_Vertical*%
%TO.CVal,~*%
%TO.CLbN,Connector_PinHeader_2.54mm*%
%TO.CMnt,TH*%
%TO.CRot,0*%
X53365000Y-87625000D03*
D11*
X57680000Y-85860000D02*
X57680000Y-99550000D01*
X51600000Y-99550000D01*
X51600000Y-85860000D01*
X57680000Y-85860000D01*
D12*
%TO.P,P4,1,Pin_1*%
X53365000Y-87625000D03*
D13*
%TO.P,P4,2,Pin_2*%
X55905000Y-87625000D03*
%TO.P,P4,3,Pin_3*%
X53365000Y-90165000D03*
%TO.P,P4,4,Pin_4*%
X55905000Y-90165000D03*
%TO.P,P4,5,Pin_5*%
X53365000Y-92705000D03*
%TO.P,P4,6,Pin_6*%
X55905000Y-92705000D03*
%TO.P,P4,7,Pin_7*%
X53365000Y-95245000D03*
%TO.P,P4,8,Pin_8*%
X55905000Y-95245000D03*
%TO.P,P4,9,Pin_9*%
X53365000Y-97785000D03*
%TO.P,P4,10,Pin_10*%
X55905000Y-97785000D03*
%TD*%
D10*
%TO.C,C6*%
%TO.CFtp,CP_Elec_6.3x5.3*%
%TO.CVal,100u*%
%TO.CLbN,Capacitor_SMD*%
%TO.CMnt,SMD*%
%TO.CRot,0*%
X120240000Y-79630200D03*
D11*
X123785000Y-76085200D02*
X123785000Y-78585200D01*
X125035000Y-78585200D01*
X125035000Y-80675200D01*
X123785000Y-80675200D01*
X123785000Y-83175200D01*
X117842072Y-83175200D01*
X116695000Y-82028128D01*
X116695000Y-80675200D01*
X115445000Y-80675200D01*
X115445000Y-78585200D01*
X116695000Y-78585200D01*
X116695000Y-77232272D01*
X117842072Y-76085200D01*
X123785000Y-76085200D01*
D12*
%TO.P,C6,1*%
X117440000Y-79630200D03*
D13*
%TO.P,C6,2*%
X123040000Y-79630200D03*
%TD*%
D10*
%TO.C,R7*%
%TO.CFtp,R_0805_2012Metric_Pad1.20x1.40mm_HandSolder*%
%TO.CVal,200*%
%TO.CLbN,Resistor_SMD*%
%TO.CMnt,SMD*%
%TO.CRot,90*%
X85764000Y-63579000D03*
D11*
X86709000Y-61734000D02*
X86709000Y-65424000D01*
X84819000Y-65424000D01*
X84819000Y-61734000D01*
X86709000Y-61734000D01*
D12*
%TO.P,R7,1*%
X85764000Y-64579000D03*
D13*
%TO.P,R7,2*%
X85764000Y-62579000D03*
%TD*%
D10*
%TO.C,R9*%
%TO.CFtp,R_0805_2012Metric_Pad1.20x1.40mm_HandSolder*%
%TO.CVal,142K8*%
%TO.CLbN,Resistor_SMD*%
%TO.CMnt,SMD*%
%TO.CRot,-90*%
X141970000Y-108100000D03*
D11*
X142915000Y-106255000D02*
X142915000Y-109945000D01*
X141025000Y-109945000D01*
X141025000Y-106255000D01*
X142915000Y-106255000D01*
D12*
%TO.P,R9,1*%
X141970000Y-107100000D03*
D13*
%TO.P,R9,2*%
X141970000Y-109100000D03*
%TD*%
D10*
%TO.C,D4*%
%TO.CFtp,D_SMC_Handsoldering*%
%TO.CVal,D_Schottky*%
%TO.CLbN,Diode_SMD*%
%TO.CMnt,SMD*%
%TO.CRot,0*%
X101882500Y-114360000D03*
D11*
X108777500Y-111015000D02*
X108777500Y-117705000D01*
X94987500Y-117705000D01*
X94987500Y-111015000D01*
X108777500Y-111015000D01*
D12*
%TO.P,D4,1,K*%
X97482500Y-114360000D03*
D13*
%TO.P,D4,2,A*%
X106282500Y-114360000D03*
%TD*%
D10*
%TO.C,FID2*%
%TO.CFtp,Fiducial_1mm_Mask2mm*%
%TO.CVal,Fiducial*%
%TO.CLbN,Fiducial*%
%TO.CMnt,SMD*%
%TO.CRot,0*%
X145000000Y-120000000D03*
D11*
X145277598Y-118783771D02*
X145490300Y-118852883D01*
X145687248Y-118958865D01*
X145862103Y-119098308D01*
X146009253Y-119266734D01*
X146123964Y-119458728D01*
X146202548Y-119668114D01*
X146242493Y-119888230D01*
X146244998Y-120000000D01*
X146242493Y-120111769D01*
X146202548Y-120331885D01*
X146123964Y-120541271D01*
X146009253Y-120733265D01*
X145862103Y-120901691D01*
X145687248Y-121041134D01*
X145490300Y-121147116D01*
X145277598Y-121216228D01*
X145055967Y-121246249D01*
X144832545Y-121236215D01*
X144614498Y-121186447D01*
X144408843Y-121098547D01*
X144222192Y-120975339D01*
X144060539Y-120820782D01*
X143929080Y-120639845D01*
X143832041Y-120438342D01*
X143772542Y-120222750D01*
X143752494Y-120000000D01*
X143772542Y-119777249D01*
X143832041Y-119561657D01*
X143929080Y-119360154D01*
X144060539Y-119179217D01*
X144222192Y-119024660D01*
X144408843Y-118901452D01*
X144614498Y-118813552D01*
X144832545Y-118763784D01*
X145055967Y-118753750D01*
X145277598Y-118783771D01*
D13*
%TO.P,FID2,*%
X145000000Y-120000000D03*
%TD*%
D10*
%TO.C,D2*%
%TO.CFtp,D_SMC_Handsoldering*%
%TO.CVal,D_TVS*%
%TO.CLbN,Diode_SMD*%
%TO.CMnt,SMD*%
%TO.CRot,-90*%
X62430000Y-121020000D03*
D11*
X65775000Y-114125000D02*
X65775000Y-127915000D01*
X59085000Y-127915000D01*
X59085000Y-114125000D01*
X65775000Y-114125000D01*
D12*
%TO.P,D2,1,A1*%
X62430000Y-116620000D03*
D13*
%TO.P,D2,2,A2*%
X62430000Y-125420000D03*
%TD*%
D10*
%TO.C,P6*%
%TO.CFtp,PinHeader_2x02_P2.54mm_Vertical*%
%TO.CVal,~*%
%TO.CLbN,Connector_PinHeader_2.54mm*%
%TO.CMnt,TH*%
%TO.CRot,0*%
X53365000Y-66055000D03*
D11*
X57680000Y-64290000D02*
X57680000Y-70370000D01*
X51600000Y-70370000D01*
X51600000Y-64290000D01*
X57680000Y-64290000D01*
D12*
%TO.P,P6,1,Pin_1*%
X53365000Y-66055000D03*
D13*
%TO.P,P6,2,Pin_2*%
X55905000Y-66055000D03*
%TO.P,P6,3,Pin_3*%
X53365000Y-68595000D03*
%TO.P,P6,4,Pin_4*%
X55905000Y-68595000D03*
%TD*%
D10*
%TO.C,FID4*%
%TO.CFtp,Fiducial_1mm_Mask2mm*%
%TO.CVal,Fiducial*%
%TO.CLbN,Fiducial*%
%TO.CMnt,SMD*%
%TO.CRot,0*%
X55000000Y-60000000D03*
D11*
X55277598Y-58783771D02*
X55490300Y-58852883D01*
X55687248Y-58958865D01*
X55862103Y-59098308D01*
X56009253Y-59266734D01*
X56123964Y-59458728D01*
X56202548Y-59668114D01*
X56242493Y-59888230D01*
X56244998Y-60000000D01*
X56242493Y-60111769D01*
X56202548Y-60331885D01*
X56123964Y-60541271D01*
X56009253Y-60733265D01*
X55862103Y-60901691D01*
X55687248Y-61041134D01*
X55490300Y-61147116D01*
X55277598Y-61216228D01*
X55055967Y-61246249D01*
X54832545Y-61236215D01*
X54614498Y-61186447D01*
X54408843Y-61098547D01*
X54222192Y-60975339D01*
X54060539Y-60820782D01*
X53929080Y-60639845D01*
X53832041Y-60438342D01*
X53772542Y-60222750D01*
X53752494Y-60000000D01*
X53772542Y-59777249D01*
X53832041Y-59561657D01*
X53929080Y-59360154D01*
X54060539Y-59179217D01*
X54222192Y-59024660D01*
X54408843Y-58901452D01*
X54614498Y-58813552D01*
X54832545Y-58763784D01*
X55055967Y-58753750D01*
X55277598Y-58783771D01*
D13*
%TO.P,FID4,*%
X55000000Y-60000000D03*
%TD*%
D10*
%TO.C,C16*%
%TO.CFtp,C_0805_2012Metric_Pad1.18x1.45mm_HandSolder*%
%TO.CVal,2u2*%
%TO.CLbN,Capacitor_SMD*%
%TO.CMnt,SMD*%
%TO.CRot,180*%
X118780000Y-121210000D03*
D11*
X120655000Y-120235000D02*
X120655000Y-122185000D01*
X116905000Y-122185000D01*
X116905000Y-120235000D01*
X120655000Y-120235000D01*
D12*
%TO.P,C16,1*%
X119817500Y-121210000D03*
D13*
%TO.P,C16,2*%
X117742500Y-121210000D03*
%TD*%
D10*
%TO.C,C17*%
%TO.CFtp,C_1210_3225Metric_Pad1.33x2.70mm_HandSolder*%
%TO.CVal,47u*%
%TO.CLbN,Capacitor_SMD*%
%TO.CMnt,SMD*%
%TO.CRot,0*%
X112800000Y-99080000D03*
D11*
X115275000Y-97485000D02*
X115275000Y-100675000D01*
X110325000Y-100675000D01*
X110325000Y-97485000D01*
X115275000Y-97485000D01*
D12*
%TO.P,C17,1*%
X111237500Y-99080000D03*
D13*
%TO.P,C17,2*%
X114362500Y-99080000D03*
%TD*%
D10*
%TO.C,R13*%
%TO.CFtp,R_0805_2012Metric_Pad1.20x1.40mm_HandSolder*%
%TO.CVal,53K6*%
%TO.CLbN,Resistor_SMD*%
%TO.CMnt,SMD*%
%TO.CRot,-90*%
X111200000Y-107550000D03*
D11*
X112145000Y-105705000D02*
X112145000Y-109395000D01*
X110255000Y-109395000D01*
X110255000Y-105705000D01*
X112145000Y-105705000D01*
D12*
%TO.P,R13,1*%
X111200000Y-106550000D03*
D13*
%TO.P,R13,2*%
X111200000Y-108550000D03*
%TD*%
D10*
%TO.C,L1*%
%TO.CFtp,L_Bourns_SRR1210A*%
%TO.CVal,27u*%
%TO.CLbN,Inductor_SMD*%
%TO.CMnt,SMD*%
%TO.CRot,0*%
X132700000Y-103510000D03*
D11*
X138449929Y-97265000D02*
X138514803Y-97267117D01*
X138640238Y-97300727D01*
X138752621Y-97365611D01*
X138844388Y-97457378D01*
X138909272Y-97569761D01*
X138942882Y-97695196D01*
X138945000Y-97760071D01*
X138945000Y-100615000D01*
X139395000Y-100615000D01*
X139395000Y-106405000D01*
X138945000Y-106405000D01*
X138945000Y-109259928D01*
X138942882Y-109324803D01*
X138909272Y-109450238D01*
X138844388Y-109562621D01*
X138752621Y-109654388D01*
X138640238Y-109719272D01*
X138514803Y-109752882D01*
X138449929Y-109755000D01*
X126950071Y-109755000D01*
X126885196Y-109752882D01*
X126759761Y-109719272D01*
X126647378Y-109654388D01*
X126555611Y-109562621D01*
X126490727Y-109450238D01*
X126457117Y-109324803D01*
X126455000Y-109259928D01*
X126455000Y-106405000D01*
X126005000Y-106405000D01*
X126005000Y-100615000D01*
X126455000Y-100615000D01*
X126455000Y-97760071D01*
X126457117Y-97695196D01*
X126490727Y-97569761D01*
X126555611Y-97457378D01*
X126647378Y-97365611D01*
X126759761Y-97300727D01*
X126885196Y-97267117D01*
X126950071Y-97265000D01*
X138449929Y-97265000D01*
D12*
%TO.P,L1,1*%
X127650000Y-103510000D03*
D13*
%TO.P,L1,2*%
X137750000Y-103510000D03*
%TD*%
D10*
%TO.C,U3*%
%TO.CFtp,Texas_HSOP-8-1EP_3.9x4.9mm_P1.27mm_ThermalVias*%
%TO.CVal,TPS54360DDA*%
%TO.CLbN,Package_SO*%
%TO.CMnt,SMD*%
%TO.CRot,0*%
X124670000Y-121635000D03*
D11*
X128415000Y-118890000D02*
X128415000Y-124380000D01*
X120925000Y-124380000D01*
X120925000Y-118890000D01*
X128415000Y-118890000D01*
D12*
%TO.P,U3,1,BOOT*%
X121970000Y-119730000D03*
D13*
%TO.P,U3,2,VIN*%
X121970000Y-121000000D03*
%TO.P,U3,3,EN*%
X121970000Y-122270000D03*
%TO.P,U3,4,RT/CLK*%
X121970000Y-123540000D03*
%TO.P,U3,5,FB*%
X127370000Y-123540000D03*
%TO.P,U3,6,COMP*%
X127370000Y-122270000D03*
%TO.P,U3,7,GND*%
X127370000Y-121000000D03*
%TO.P,U3,8,SW*%
X127370000Y-119730000D03*
%TO.P,U3,9,GNDPAD*%
X124020000Y-119685000D03*
X124020000Y-120985000D03*
X124020000Y-122285000D03*
X124020000Y-123585000D03*
X124670000Y-121635000D03*
X125320000Y-119685000D03*
X125320000Y-120985000D03*
X125320000Y-122285000D03*
X125320000Y-123585000D03*
%TD*%
D10*
%TO.C,R12*%
%TO.CFtp,R_0805_2012Metric_Pad1.20x1.40mm_HandSolder*%
%TO.CVal,10K2*%
%TO.CLbN,Resistor_SMD*%
%TO.CMnt,SMD*%
%TO.CRot,0*%
X143060000Y-111350000D03*
D11*
X144905000Y-110405000D02*
X144905000Y-112295000D01*
X141215000Y-112295000D01*
X141215000Y-110405000D01*
X144905000Y-110405000D01*
D12*
%TO.P,R12,1*%
X142060000Y-111350000D03*
D13*
%TO.P,R12,2*%
X144060000Y-111350000D03*
%TD*%
D10*
%TO.C,FB1*%
%TO.CFtp,R_0805_2012Metric_Pad1.20x1.40mm_HandSolder*%
%TO.CVal,220R*%
%TO.CLbN,Resistor_SMD*%
%TO.CMnt,SMD*%
%TO.CRot,90*%
X67230000Y-119650000D03*
D11*
X68175000Y-117805000D02*
X68175000Y-121495000D01*
X66285000Y-121495000D01*
X66285000Y-117805000D01*
X68175000Y-117805000D01*
D12*
%TO.P,FB1,1*%
X67230000Y-120650000D03*
D13*
%TO.P,FB1,2*%
X67230000Y-118650000D03*
%TD*%
D10*
%TO.C,D3*%
%TO.CFtp,D_SMC_Handsoldering*%
%TO.CVal,D_Schottky*%
%TO.CLbN,Diode_SMD*%
%TO.CMnt,SMD*%
%TO.CRot,0*%
X132722500Y-114620000D03*
D11*
X139617500Y-111275000D02*
X139617500Y-117965000D01*
X125827500Y-117965000D01*
X125827500Y-111275000D01*
X139617500Y-111275000D01*
D12*
%TO.P,D3,1,K*%
X128322500Y-114620000D03*
D13*
%TO.P,D3,2,A*%
X137122500Y-114620000D03*
%TD*%
D10*
%TO.C,C9*%
%TO.CFtp,C_0805_2012Metric_Pad1.18x1.45mm_HandSolder*%
%TO.CVal,2u2*%
%TO.CLbN,Capacitor_SMD*%
%TO.CMnt,SMD*%
%TO.CRot,180*%
X87780000Y-121070000D03*
D11*
X89655000Y-120095000D02*
X89655000Y-122045000D01*
X85905000Y-122045000D01*
X85905000Y-120095000D01*
X89655000Y-120095000D01*
D12*
%TO.P,C9,1*%
X88817500Y-121070000D03*
D13*
%TO.P,C9,2*%
X86742500Y-121070000D03*
%TD*%
D10*
%TO.C,P8*%
%TO.CFtp,TerminalBlock_Phoenix_MKDS-1\u002C5-2_1x02_P5.00mm_Horizontal*%
%TO.CVal,~*%
%TO.CLbN,TerminalBlock_Phoenix*%
%TO.CMnt,TH*%
%TO.CRot,-90*%
X56960000Y-104940000D03*
D11*
X62665000Y-101945000D02*
X62665000Y-112935000D01*
X51865000Y-112935000D01*
X51865000Y-101945000D01*
X62665000Y-101945000D01*
D12*
%TO.P,P8,1,Pin_1*%
X56960000Y-104940000D03*
D13*
%TO.P,P8,2,Pin_2*%
X56960000Y-109940000D03*
%TD*%
D10*
%TO.C,C11*%
%TO.CFtp,C_1210_3225Metric_Pad1.33x2.70mm_HandSolder*%
%TO.CVal,47u*%
%TO.CLbN,Capacitor_SMD*%
%TO.CMnt,SMD*%
%TO.CRot,0*%
X143660000Y-98900000D03*
D11*
X146135000Y-97305000D02*
X146135000Y-100495000D01*
X141185000Y-100495000D01*
X141185000Y-97305000D01*
X146135000Y-97305000D01*
D12*
%TO.P,C11,1*%
X142097500Y-98900000D03*
D13*
%TO.P,C11,2*%
X145222500Y-98900000D03*
%TD*%
D10*
%TO.C,D1*%
%TO.CFtp,D_SMC_Handsoldering*%
%TO.CVal,D_Schottky*%
%TO.CLbN,Diode_SMD*%
%TO.CMnt,SMD*%
%TO.CRot,90*%
X74410000Y-111050000D03*
D11*
X77755000Y-104155000D02*
X77755000Y-117945000D01*
X71065000Y-117945000D01*
X71065000Y-104155000D01*
X77755000Y-104155000D01*
D12*
%TO.P,D1,1,K*%
X74410000Y-115450000D03*
D13*
%TO.P,D1,2,A*%
X74410000Y-106650000D03*
%TD*%
D10*
%TO.C,U7*%
%TO.CFtp,Pololu_Breakout-16_15.2x20.3mm*%
%TO.CVal,Pololu_Breakout_A4988*%
%TO.CLbN,Module*%
%TO.CMnt,TH*%
%TO.CRot,-90*%
X134190000Y-74150000D03*
D11*
X135705000Y-72625000D02*
X135705000Y-88355000D01*
X114895000Y-88355000D01*
X114895000Y-72625000D01*
X135705000Y-72625000D01*
D12*
%TO.P,U7,1,GND*%
X134190000Y-74150000D03*
D13*
%TO.P,U7,2,VDD*%
X131650000Y-74150000D03*
%TO.P,U7,3,1B*%
X129110000Y-74150000D03*
%TO.P,U7,4,1A*%
X126570000Y-74150000D03*
%TO.P,U7,5,2A*%
X124030000Y-74150000D03*
%TO.P,U7,6,2B*%
X121490000Y-74150000D03*
%TO.P,U7,7,GND*%
X118950000Y-74150000D03*
%TO.P,U7,8,VMOT*%
X116410000Y-74150000D03*
%TO.P,U7,9,~{ENABLE}*%
X116410000Y-86850000D03*
%TO.P,U7,10,MS1*%
X118950000Y-86850000D03*
%TO.P,U7,11,MS2*%
X121490000Y-86850000D03*
%TO.P,U7,12,MS3*%
X124030000Y-86850000D03*
%TO.P,U7,13,~{RESET}*%
X126570000Y-86850000D03*
%TO.P,U7,14,~{SLEEP}*%
X129110000Y-86850000D03*
%TO.P,U7,15,STEP*%
X131650000Y-86850000D03*
%TO.P,U7,16,DIR*%
X134190000Y-86850000D03*
%TD*%
D10*
%TO.C,C12*%
%TO.CFtp,C_1210_3225Metric_Pad1.33x2.70mm_HandSolder*%
%TO.CVal,47u*%
%TO.CLbN,Capacitor_SMD*%
%TO.CMnt,SMD*%
%TO.CRot,0*%
X143710000Y-102530000D03*
D11*
X146185000Y-100935000D02*
X146185000Y-104125000D01*
X141235000Y-104125000D01*
X141235000Y-100935000D01*
X146185000Y-100935000D01*
D12*
%TO.P,C12,1*%
X142147500Y-102530000D03*
D13*
%TO.P,C12,2*%
X145272500Y-102530000D03*
%TD*%
D10*
%TO.C,P7*%
%TO.CFtp,PinHeader_2x04_P2.54mm_Vertical*%
%TO.CVal,~*%
%TO.CLbN,Connector_PinHeader_2.54mm*%
%TO.CMnt,TH*%
%TO.CRot,-90*%
X75309062Y-54170000D03*
D11*
X77074062Y-52405000D02*
X77074062Y-58485000D01*
X65924062Y-58485000D01*
X65924062Y-52405000D01*
X77074062Y-52405000D01*
D12*
%TO.P,P7,1,Pin_1*%
X75309062Y-54170000D03*
D13*
%TO.P,P7,2,Pin_2*%
X75309062Y-56710000D03*
%TO.P,P7,3,Pin_3*%
X72769062Y-54170000D03*
%TO.P,P7,4,Pin_4*%
X72769062Y-56710000D03*
%TO.P,P7,5,Pin_5*%
X70229062Y-54170000D03*
%TO.P,P7,6,Pin_6*%
X70229062Y-56710000D03*
%TO.P,P7,7,Pin_7*%
X67689062Y-54170000D03*
%TO.P,P7,8,Pin_8*%
X67689062Y-56710000D03*
%TD*%
D10*
%TO.C,C20*%
%TO.CFtp,C_0805_2012Metric_Pad1.18x1.45mm_HandSolder*%
%TO.CVal,6n8*%
%TO.CLbN,Capacitor_SMD*%
%TO.CMnt,SMD*%
%TO.CRot,0*%
X102850000Y-124900000D03*
D11*
X104725000Y-123925000D02*
X104725000Y-125875000D01*
X100975000Y-125875000D01*
X100975000Y-123925000D01*
X104725000Y-123925000D01*
D12*
%TO.P,C20,1*%
X101812500Y-124900000D03*
D13*
%TO.P,C20,2*%
X103887500Y-124900000D03*
%TD*%
D10*
%TO.C,R15*%
%TO.CFtp,R_0805_2012Metric_Pad1.20x1.40mm_HandSolder*%
%TO.CVal,13K*%
%TO.CLbN,Resistor_SMD*%
%TO.CMnt,SMD*%
%TO.CRot,0*%
X102820000Y-122720000D03*
D11*
X104665000Y-121775000D02*
X104665000Y-123665000D01*
X100975000Y-123665000D01*
X100975000Y-121775000D01*
X104665000Y-121775000D01*
D12*
%TO.P,R15,1*%
X101820000Y-122720000D03*
D13*
%TO.P,R15,2*%
X103820000Y-122720000D03*
%TD*%
D10*
%TO.C,R11*%
%TO.CFtp,R_0805_2012Metric_Pad1.20x1.40mm_HandSolder*%
%TO.CVal,26K7*%
%TO.CLbN,Resistor_SMD*%
%TO.CMnt,SMD*%
%TO.CRot,0*%
X132710000Y-122320000D03*
D11*
X134555000Y-121375000D02*
X134555000Y-123265000D01*
X130865000Y-123265000D01*
X130865000Y-121375000D01*
X134555000Y-121375000D01*
D12*
%TO.P,R11,1*%
X131710000Y-122320000D03*
D13*
%TO.P,R11,2*%
X133710000Y-122320000D03*
%TD*%
D10*
%TO.C,C18*%
%TO.CFtp,C_1210_3225Metric_Pad1.33x2.70mm_HandSolder*%
%TO.CVal,47u*%
%TO.CLbN,Capacitor_SMD*%
%TO.CMnt,SMD*%
%TO.CRot,0*%
X112740000Y-102580000D03*
D11*
X115215000Y-100985000D02*
X115215000Y-104175000D01*
X110265000Y-104175000D01*
X110265000Y-100985000D01*
X115215000Y-100985000D01*
D12*
%TO.P,C18,1*%
X111177500Y-102580000D03*
D13*
%TO.P,C18,2*%
X114302500Y-102580000D03*
%TD*%
D10*
%TO.C,R16*%
%TO.CFtp,R_0805_2012Metric_Pad1.20x1.40mm_HandSolder*%
%TO.CVal,10K2*%
%TO.CLbN,Resistor_SMD*%
%TO.CMnt,SMD*%
%TO.CRot,0*%
X112080000Y-110750000D03*
D11*
X113925000Y-109805000D02*
X113925000Y-111695000D01*
X110235000Y-111695000D01*
X110235000Y-109805000D01*
X113925000Y-109805000D01*
D12*
%TO.P,R16,1*%
X111080000Y-110750000D03*
D13*
%TO.P,R16,2*%
X113080000Y-110750000D03*
%TD*%
D10*
%TO.C,C19*%
%TO.CFtp,C_0805_2012Metric_Pad1.18x1.45mm_HandSolder*%
%TO.CVal,39p*%
%TO.CLbN,Capacitor_SMD*%
%TO.CMnt,SMD*%
%TO.CRot,0*%
X102810000Y-120650000D03*
D11*
X104685000Y-119675000D02*
X104685000Y-121625000D01*
X100935000Y-121625000D01*
X100935000Y-119675000D01*
X104685000Y-119675000D01*
D12*
%TO.P,C19,1*%
X101772500Y-120650000D03*
D13*
%TO.P,C19,2*%
X103847500Y-120650000D03*
%TD*%
D10*
%TO.C,C8*%
%TO.CFtp,C_0805_2012Metric_Pad1.18x1.45mm_HandSolder*%
%TO.CVal,100n*%
%TO.CLbN,Capacitor_SMD*%
%TO.CMnt,SMD*%
%TO.CRot,0*%
X122840000Y-116460000D03*
D11*
X124715000Y-115485000D02*
X124715000Y-117435000D01*
X120965000Y-117435000D01*
X120965000Y-115485000D01*
X124715000Y-115485000D01*
D12*
%TO.P,C8,1*%
X121802500Y-116460000D03*
D13*
%TO.P,C8,2*%
X123877500Y-116460000D03*
%TD*%
D10*
%TO.C,R10*%
%TO.CFtp,R_0805_2012Metric_Pad1.20x1.40mm_HandSolder*%
%TO.CVal,221K*%
%TO.CLbN,Resistor_SMD*%
%TO.CMnt,SMD*%
%TO.CRot,0*%
X122770000Y-126020000D03*
D11*
X124615000Y-125075000D02*
X124615000Y-126965000D01*
X120925000Y-126965000D01*
X120925000Y-125075000D01*
X124615000Y-125075000D01*
D12*
%TO.P,R10,1*%
X121770000Y-126020000D03*
D13*
%TO.P,R10,2*%
X123770000Y-126020000D03*
%TD*%
D10*
%TO.C,U6*%
%TO.CFtp,Arduino_Pro_Mini_328*%
%TO.CVal,Arduino_Pro_Mini_328*%
%TO.CLbN,lsf-kicad-lib*%
%TO.CMnt,TH*%
%TO.CRot,180*%
X80125000Y-97750000D03*
D11*
X81820000Y-68055000D02*
X81820000Y-102045000D01*
X63130000Y-102045000D01*
X63130000Y-68055000D01*
X81820000Y-68055000D01*
D12*
%TO.P,U6,1,PD1/TX*%
X80125000Y-97750000D03*
D13*
%TO.P,U6,2,PD0/RX*%
X80125000Y-95210000D03*
%TO.P,U6,3,PC6/RST*%
X80125000Y-92670000D03*
%TO.P,U6,4,GND*%
X80125000Y-90130000D03*
%TO.P,U6,5,PD2/2*%
X80125000Y-87590000D03*
%TO.P,U6,6,PD3/3*%
X80125000Y-85050000D03*
%TO.P,U6,7,PD4/4*%
X80125000Y-82510000D03*
%TO.P,U6,8,PD5/5*%
X80125000Y-79970000D03*
%TO.P,U6,9,PD6/6*%
X80125000Y-77430000D03*
%TO.P,U6,10,PD7/7*%
X80125000Y-74890000D03*
%TO.P,U6,11,PB0/8*%
X80125000Y-72350000D03*
%TO.P,U6,12,PB1/9*%
X80125000Y-69810000D03*
%TO.P,U6,13,PB2/10*%
X64885000Y-69810000D03*
%TO.P,U6,14,PB3/11*%
X64885000Y-72350000D03*
%TO.P,U6,15,PB4/12*%
X64885000Y-74890000D03*
%TO.P,U6,16,PB5/13*%
X64885000Y-77430000D03*
%TO.P,U6,17,ADC6/A6*%
X67806000Y-76033000D03*
%TO.P,U6,18,ADC7/A7*%
X67806000Y-78573000D03*
%TO.P,U6,19,PC0/A0*%
X64885000Y-79970000D03*
%TO.P,U6,20,PC1/A1*%
X64885000Y-82510000D03*
%TO.P,U6,21,PC2/A2*%
X64885000Y-85050000D03*
%TO.P,U6,22,PC3/A3*%
X64885000Y-87590000D03*
%TO.P,U6,23,PC4/A4*%
X67806000Y-86447000D03*
%TO.P,U6,24,PC5/A5*%
X67806000Y-88987000D03*
%TO.P,U6,25,VCC*%
X64885000Y-90130000D03*
%TO.P,U6,26,PC6/RST*%
X64885000Y-92670000D03*
%TO.P,U6,27,GND*%
X64885000Y-95210000D03*
%TO.P,U6,28,RAW*%
X64885000Y-97750000D03*
%TD*%
D10*
%TO.C,L2*%
%TO.CFtp,L_Bourns_SRR1210A*%
%TO.CVal,8u2*%
%TO.CLbN,Inductor_SMD*%
%TO.CMnt,SMD*%
%TO.CRot,0*%
X102360000Y-103350000D03*
D11*
X108109929Y-97105000D02*
X108174803Y-97107117D01*
X108300238Y-97140727D01*
X108412621Y-97205611D01*
X108504388Y-97297378D01*
X108569272Y-97409761D01*
X108602882Y-97535196D01*
X108605000Y-97600071D01*
X108605000Y-100455000D01*
X109055000Y-100455000D01*
X109055000Y-106245000D01*
X108605000Y-106245000D01*
X108605000Y-109099928D01*
X108602882Y-109164803D01*
X108569272Y-109290238D01*
X108504388Y-109402621D01*
X108412621Y-109494388D01*
X108300238Y-109559272D01*
X108174803Y-109592882D01*
X108109929Y-109595000D01*
X96610071Y-109595000D01*
X96545196Y-109592882D01*
X96419761Y-109559272D01*
X96307378Y-109494388D01*
X96215611Y-109402621D01*
X96150727Y-109290238D01*
X96117117Y-109164803D01*
X96115000Y-109099928D01*
X96115000Y-106245000D01*
X95665000Y-106245000D01*
X95665000Y-100455000D01*
X96115000Y-100455000D01*
X96115000Y-97600071D01*
X96117117Y-97535196D01*
X96150727Y-97409761D01*
X96215611Y-97297378D01*
X96307378Y-97205611D01*
X96419761Y-97140727D01*
X96545196Y-97107117D01*
X96610071Y-97105000D01*
X108109929Y-97105000D01*
D12*
%TO.P,L2,1*%
X97310000Y-103350000D03*
D13*
%TO.P,L2,2*%
X107410000Y-103350000D03*
%TD*%
D10*
%TO.C,P9*%
%TO.CFtp,TerminalBlock_Phoenix_MKDS-1\u002C5-2_1x02_P5.00mm_Horizontal*%
%TO.CVal,~*%
%TO.CLbN,TerminalBlock_Phoenix*%
%TO.CMnt,TH*%
%TO.CRot,90*%
X143747500Y-91940000D03*
D11*
X148842500Y-83945000D02*
X148842500Y-94935000D01*
X138042500Y-94935000D01*
X138042500Y-83945000D01*
X148842500Y-83945000D01*
D12*
%TO.P,P9,1,Pin_1*%
X143747500Y-91940000D03*
D13*
%TO.P,P9,2,Pin_2*%
X143747500Y-86940000D03*
%TD*%
D10*
%TO.C,R14*%
%TO.CFtp,R_0805_2012Metric_Pad1.20x1.40mm_HandSolder*%
%TO.CVal,162K*%
%TO.CLbN,Resistor_SMD*%
%TO.CMnt,SMD*%
%TO.CRot,0*%
X92080000Y-126040000D03*
D11*
X93925000Y-125095000D02*
X93925000Y-126985000D01*
X90235000Y-126985000D01*
X90235000Y-125095000D01*
X93925000Y-125095000D01*
D12*
%TO.P,R14,1*%
X91080000Y-126040000D03*
D13*
%TO.P,R14,2*%
X93080000Y-126040000D03*
%TD*%
D10*
%TO.C,FID3*%
%TO.CFtp,Fiducial_1mm_Mask2mm*%
%TO.CVal,Fiducial*%
%TO.CLbN,Fiducial*%
%TO.CMnt,SMD*%
%TO.CRot,0*%
X145000000Y-60000000D03*
D11*
X145277598Y-58783771D02*
X145490300Y-58852883D01*
X145687248Y-58958865D01*
X145862103Y-59098308D01*
X146009253Y-59266734D01*
X146123964Y-59458728D01*
X146202548Y-59668114D01*
X146242493Y-59888230D01*
X146244998Y-60000000D01*
X146242493Y-60111769D01*
X146202548Y-60331885D01*
X146123964Y-60541271D01*
X146009253Y-60733265D01*
X145862103Y-60901691D01*
X145687248Y-61041134D01*
X145490300Y-61147116D01*
X145277598Y-61216228D01*
X145055967Y-61246249D01*
X144832545Y-61236215D01*
X144614498Y-61186447D01*
X144408843Y-61098547D01*
X144222192Y-60975339D01*
X144060539Y-60820782D01*
X143929080Y-60639845D01*
X143832041Y-60438342D01*
X143772542Y-60222750D01*
X143752494Y-60000000D01*
X143772542Y-59777249D01*
X143832041Y-59561657D01*
X143929080Y-59360154D01*
X144060539Y-59179217D01*
X144222192Y-59024660D01*
X144408843Y-58901452D01*
X144614498Y-58813552D01*
X144832545Y-58763784D01*
X145055967Y-58753750D01*
X145277598Y-58783771D01*
D13*
%TO.P,FID3,*%
X145000000Y-60000000D03*
%TD*%
D10*
%TO.C,P10*%
%TO.CFtp,TerminalBlock_Phoenix_MKDS-1\u002C5-2_1x02_P5.00mm_Horizontal*%
%TO.CVal,~*%
%TO.CLbN,TerminalBlock_Phoenix*%
%TO.CMnt,TH*%
%TO.CRot,90*%
X143717500Y-79690000D03*
D11*
X148812500Y-71695000D02*
X148812500Y-82685000D01*
X138012500Y-82685000D01*
X138012500Y-71695000D01*
X148812500Y-71695000D01*
D12*
%TO.P,P10,1,Pin_1*%
X143717500Y-79690000D03*
D13*
%TO.P,P10,2,Pin_2*%
X143717500Y-74690000D03*
%TD*%
D10*
%TO.C,C15*%
%TO.CFtp,C_0805_2012Metric_Pad1.18x1.45mm_HandSolder*%
%TO.CVal,100n*%
%TO.CLbN,Capacitor_SMD*%
%TO.CMnt,SMD*%
%TO.CRot,0*%
X92020000Y-116710000D03*
D11*
X93895000Y-115735000D02*
X93895000Y-117685000D01*
X90145000Y-117685000D01*
X90145000Y-115735000D01*
X93895000Y-115735000D01*
D12*
%TO.P,C15,1*%
X90982500Y-116710000D03*
D13*
%TO.P,C15,2*%
X93057500Y-116710000D03*
%TD*%
D10*
%TO.C,C14*%
%TO.CFtp,C_0805_2012Metric_Pad1.18x1.45mm_HandSolder*%
%TO.CVal,7n5*%
%TO.CLbN,Capacitor_SMD*%
%TO.CMnt,SMD*%
%TO.CRot,0*%
X132700000Y-124530000D03*
D11*
X134575000Y-123555000D02*
X134575000Y-125505000D01*
X130825000Y-125505000D01*
X130825000Y-123555000D01*
X134575000Y-123555000D01*
D12*
%TO.P,C14,1*%
X131662500Y-124530000D03*
D13*
%TO.P,C14,2*%
X133737500Y-124530000D03*
%TD*%
D10*
%TO.C,U8*%
%TO.CFtp,Pololu_Dual_MC33926*%
%TO.CVal,Pololu_Dual_MC33926*%
%TO.CLbN,lsf-kicad-lib*%
%TO.CMnt,TH*%
%TO.CRot,180*%
X135950000Y-92790000D03*
D11*
X137645000Y-65895000D02*
X137645000Y-94485000D01*
X91055000Y-94485000D01*
X91055000Y-65895000D01*
X137645000Y-65895000D01*
D12*
%TO.P,U8,1,VMOT*%
X135950000Y-92790000D03*
D13*
%TO.P,U8,*%
X134680000Y-68660000D03*
X94040000Y-68660000D03*
%TO.P,U8,2,GND*%
X133410000Y-92790000D03*
%TO.P,U8,3,VDD*%
X130870000Y-92790000D03*
%TO.P,U8,4,M1IN2*%
X128330000Y-92790000D03*
%TO.P,U8,5,M1IN1*%
X125790000Y-92790000D03*
%TO.P,U8,6,M1D2*%
X123250000Y-92790000D03*
%TO.P,U8,7,M1D1*%
X120710000Y-92790000D03*
%TO.P,U8,8,M1SF*%
X118170000Y-92790000D03*
%TO.P,U8,9,M1FB*%
X115630000Y-92790000D03*
%TO.P,U8,10,EN*%
X113090000Y-92790000D03*
%TO.P,U8,11,SLEW*%
X110550000Y-92790000D03*
%TO.P,U8,12,INV*%
X108010000Y-92790000D03*
%TO.P,U8,13,M2IN2*%
X105470000Y-92790000D03*
%TO.P,U8,14,M2IN1*%
X102930000Y-92790000D03*
%TO.P,U8,15,M2D2*%
X100390000Y-92790000D03*
%TO.P,U8,16,M2D1*%
X97850000Y-92790000D03*
%TO.P,U8,17,M2SF*%
X95310000Y-92790000D03*
%TO.P,U8,18,M2FB*%
X92770000Y-92790000D03*
%TO.P,U8,19,GND*%
X97850000Y-90250000D03*
%TO.P,U8,20,VDD-OUT*%
X100390000Y-90250000D03*
%TO.P,U8,21,VDD-OUT*%
X108010000Y-90250000D03*
%TO.P,U8,22,VDD-OUT*%
X110550000Y-90250000D03*
%TO.P,U8,23,VDD-OUT*%
X113090000Y-90250000D03*
%TO.P,U8,24,GND*%
X120710000Y-90250000D03*
%TO.P,U8,25,VDD-OUT*%
X123250000Y-90250000D03*
%TO.P,U8,26,VMOT*%
X113140800Y-70387200D03*
%TO.P,U8,27,GND*%
X116640920Y-70387200D03*
%TD*%
D10*
%TO.C,F1*%
%TO.CFtp,Fuse_1206_3216Metric_Pad1.42x1.75mm_HandSolder*%
%TO.CVal,Fuse*%
%TO.CLbN,Fuse*%
%TO.CMnt,SMD*%
%TO.CRot,180*%
X73270000Y-120510000D03*
D11*
X75715000Y-119385000D02*
X75715000Y-121635000D01*
X70825000Y-121635000D01*
X70825000Y-119385000D01*
X75715000Y-119385000D01*
D12*
%TO.P,F1,1*%
X74757500Y-120510000D03*
D13*
%TO.P,F1,2*%
X71782500Y-120510000D03*
%TD*%
D10*
%TO.C,U4*%
%TO.CFtp,Texas_HSOP-8-1EP_3.9x4.9mm_P1.27mm_ThermalVias*%
%TO.CVal,TPS54360DDA*%
%TO.CLbN,Package_SO*%
%TO.CMnt,SMD*%
%TO.CRot,0*%
X93960000Y-121655000D03*
D11*
X97705000Y-118910000D02*
X97705000Y-124400000D01*
X90215000Y-124400000D01*
X90215000Y-118910000D01*
X97705000Y-118910000D01*
D12*
%TO.P,U4,1,BOOT*%
X91260000Y-119750000D03*
D13*
%TO.P,U4,2,VIN*%
X91260000Y-121020000D03*
%TO.P,U4,3,EN*%
X91260000Y-122290000D03*
%TO.P,U4,4,RT/CLK*%
X91260000Y-123560000D03*
%TO.P,U4,5,FB*%
X96660000Y-123560000D03*
%TO.P,U4,6,COMP*%
X96660000Y-122290000D03*
%TO.P,U4,7,GND*%
X96660000Y-121020000D03*
%TO.P,U4,8,SW*%
X96660000Y-119750000D03*
%TO.P,U4,9,GNDPAD*%
X93310000Y-119705000D03*
X93310000Y-121005000D03*
X93310000Y-122305000D03*
X93310000Y-123605000D03*
X93960000Y-121655000D03*
X94610000Y-119705000D03*
X94610000Y-121005000D03*
X94610000Y-122305000D03*
X94610000Y-123605000D03*
%TD*%
D10*
%TO.C,C10*%
%TO.CFtp,CP_Radial_D10.0mm_P5.00mm*%
%TO.CVal,100u*%
%TO.CLbN,Capacitor_THT*%
%TO.CMnt,TH*%
%TO.CRot,90*%
X84230000Y-116610000D03*
D11*
X84458892Y-108867498D02*
X84914937Y-108907397D01*
X85365761Y-108986889D01*
X85807961Y-109105376D01*
X86238120Y-109261942D01*
X86653028Y-109455416D01*
X87049474Y-109684304D01*
X87424476Y-109946884D01*
X87775149Y-110241133D01*
X88098866Y-110564850D01*
X88393115Y-110915523D01*
X88655695Y-111290525D01*
X88884583Y-111686971D01*
X89078057Y-112101879D01*
X89234623Y-112532038D01*
X89353110Y-112974238D01*
X89432602Y-113425062D01*
X89472504Y-113881131D01*
X89474999Y-114110000D01*
X89472504Y-114338868D01*
X89432602Y-114794937D01*
X89353110Y-115245761D01*
X89234623Y-115687961D01*
X89078057Y-116118120D01*
X88884583Y-116533028D01*
X88655695Y-116929474D01*
X88393115Y-117304476D01*
X88098866Y-117655149D01*
X87775149Y-117978866D01*
X87424476Y-118273115D01*
X87049474Y-118535695D01*
X86653028Y-118764583D01*
X86238120Y-118958057D01*
X85807961Y-119114623D01*
X85365761Y-119233110D01*
X84914937Y-119312602D01*
X84458892Y-119352502D01*
X84001108Y-119352502D01*
X83545062Y-119312602D01*
X83094238Y-119233110D01*
X82652038Y-119114623D01*
X82221879Y-118958057D01*
X81806971Y-118764583D01*
X81410525Y-118535695D01*
X81035523Y-118273115D01*
X80684850Y-117978866D01*
X80361133Y-117655149D01*
X80066884Y-117304476D01*
X79804304Y-116929474D01*
X79575416Y-116533028D01*
X79381942Y-116118120D01*
X79225376Y-115687961D01*
X79106889Y-115245761D01*
X79027397Y-114794937D01*
X78987498Y-114338892D01*
X78987498Y-113881107D01*
X79027397Y-113425062D01*
X79106889Y-112974238D01*
X79225376Y-112532038D01*
X79381942Y-112101879D01*
X79575416Y-111686971D01*
X79804304Y-111290525D01*
X80066884Y-110915523D01*
X80361133Y-110564850D01*
X80684850Y-110241133D01*
X81035523Y-109946884D01*
X81410525Y-109684304D01*
X81806971Y-109455416D01*
X82221879Y-109261942D01*
X82652038Y-109105376D01*
X83094238Y-108986889D01*
X83545062Y-108907397D01*
X84001108Y-108867498D01*
X84458892Y-108867498D01*
D12*
%TO.P,C10,1*%
X84230000Y-116610000D03*
D13*
%TO.P,C10,2*%
X84230000Y-111610000D03*
%TD*%
D10*
%TO.C,C13*%
%TO.CFtp,C_0805_2012Metric_Pad1.18x1.45mm_HandSolder*%
%TO.CVal,10p*%
%TO.CLbN,Capacitor_SMD*%
%TO.CMnt,SMD*%
%TO.CRot,0*%
X132700000Y-120250000D03*
D11*
X134575000Y-119275000D02*
X134575000Y-121225000D01*
X130825000Y-121225000D01*
X130825000Y-119275000D01*
X134575000Y-119275000D01*
D12*
%TO.P,C13,1*%
X131662500Y-120250000D03*
D13*
%TO.P,C13,2*%
X133737500Y-120250000D03*
%TD*%
D10*
%TO.C,P5*%
%TO.CFtp,PinHeader_2x04_P2.54mm_Vertical*%
%TO.CVal,~*%
%TO.CLbN,Connector_PinHeader_2.54mm*%
%TO.CMnt,TH*%
%TO.CRot,0*%
X53365000Y-73700000D03*
D11*
X57680000Y-71935000D02*
X57680000Y-83085000D01*
X51600000Y-83085000D01*
X51600000Y-71935000D01*
X57680000Y-71935000D01*
D12*
%TO.P,P5,1,Pin_1*%
X53365000Y-73700000D03*
D13*
%TO.P,P5,2,Pin_2*%
X55905000Y-73700000D03*
%TO.P,P5,3,Pin_3*%
X53365000Y-76240000D03*
%TO.P,P5,4,Pin_4*%
X55905000Y-76240000D03*
%TO.P,P5,5,Pin_5*%
X53365000Y-78780000D03*
%TO.P,P5,6,Pin_6*%
X55905000Y-78780000D03*
%TO.P,P5,7,Pin_7*%
X53365000Y-81320000D03*
%TO.P,P5,8,Pin_8*%
X55905000Y-81320000D03*
%TD*%
D10*
%TO.C,U5*%
%TO.CFtp,Pololu_Breakout-16_15.2x20.3mm*%
%TO.CVal,Pololu_Breakout_A4988*%
%TO.CLbN,Module*%
%TO.CMnt,TH*%
%TO.CRot,-90*%
X112500000Y-74150000D03*
D11*
X114015000Y-72625000D02*
X114015000Y-88355000D01*
X93205000Y-88355000D01*
X93205000Y-72625000D01*
X114015000Y-72625000D01*
D12*
%TO.P,U5,1,GND*%
X112500000Y-74150000D03*
D13*
%TO.P,U5,2,VDD*%
X109960000Y-74150000D03*
%TO.P,U5,3,1B*%
X107420000Y-74150000D03*
%TO.P,U5,4,1A*%
X104880000Y-74150000D03*
%TO.P,U5,5,2A*%
X102340000Y-74150000D03*
%TO.P,U5,6,2B*%
X99800000Y-74150000D03*
%TO.P,U5,7,GND*%
X97260000Y-74150000D03*
%TO.P,U5,8,VMOT*%
X94720000Y-74150000D03*
%TO.P,U5,9,~{ENABLE}*%
X94720000Y-86850000D03*
%TO.P,U5,10,MS1*%
X97260000Y-86850000D03*
%TO.P,U5,11,MS2*%
X99800000Y-86850000D03*
%TO.P,U5,12,MS3*%
X102340000Y-86850000D03*
%TO.P,U5,13,~{RESET}*%
X104880000Y-86850000D03*
%TO.P,U5,14,~{SLEEP}*%
X107420000Y-86850000D03*
%TO.P,U5,15,STEP*%
X109960000Y-86850000D03*
%TO.P,U5,16,DIR*%
X112500000Y-86850000D03*
%TD*%
D10*
%TO.C,FID1*%
%TO.CFtp,Fiducial_1mm_Mask2mm*%
%TO.CVal,Fiducial*%
%TO.CLbN,Fiducial*%
%TO.CMnt,SMD*%
%TO.CRot,0*%
X55000000Y-120000000D03*
D11*
X55277598Y-118783771D02*
X55490300Y-118852883D01*
X55687248Y-118958865D01*
X55862103Y-119098308D01*
X56009253Y-119266734D01*
X56123964Y-119458728D01*
X56202548Y-119668114D01*
X56242493Y-119888230D01*
X56244998Y-120000000D01*
X56242493Y-120111769D01*
X56202548Y-120331885D01*
X56123964Y-120541271D01*
X56009253Y-120733265D01*
X55862103Y-120901691D01*
X55687248Y-121041134D01*
X55490300Y-121147116D01*
X55277598Y-121216228D01*
X55055967Y-121246249D01*
X54832545Y-121236215D01*
X54614498Y-121186447D01*
X54408843Y-121098547D01*
X54222192Y-120975339D01*
X54060539Y-120820782D01*
X53929080Y-120639845D01*
X53832041Y-120438342D01*
X53772542Y-120222750D01*
X53752494Y-120000000D01*
X53772542Y-119777249D01*
X53832041Y-119561657D01*
X53929080Y-119360154D01*
X54060539Y-119179217D01*
X54222192Y-119024660D01*
X54408843Y-118901452D01*
X54614498Y-118813552D01*
X54832545Y-118763784D01*
X55055967Y-118753750D01*
X55277598Y-118783771D01*
D13*
%TO.P,FID1,*%
X55000000Y-120000000D03*
%TD*%
M02*
