%TF.GenerationSoftware,KiCad,Pcbnew,9.0.8+1*%
%TF.CreationDate,2026-05-20T16:49:38-05:00*%
%TF.ProjectId,satnogs_controller,7361746e-6f67-4735-9f63-6f6e74726f6c,rev?*%
%TF.SameCoordinates,Original*%
%TF.FileFunction,Component,L2,Bot*%
%TF.FilePolarity,Positive*%
%FSLAX46Y46*%
G04 Gerber Fmt 4.6, Leading zero omitted, Abs format (unit mm)*
G04 Created by KiCad (PCBNEW 9.0.8+1) date 2026-05-20 16:49:38*
%MOMM*%
%LPD*%
G01*
G04 APERTURE LIST*
%TA.AperFunction,ComponentMain*%
%ADD10C,0.300000*%
%TD*%
%TA.AperFunction,ComponentOutline,Courtyard*%
%ADD11C,0.100000*%
%TD*%
%TA.AperFunction,ComponentPin*%
%ADD12P,0.360000X4X0.000000*%
%TD*%
%TA.AperFunction,ComponentPin*%
%ADD13C,0.100000*%
%TD*%
G04 APERTURE END LIST*
D10*
%TO.C,R3*%
%TO.CFtp,R_0805_2012Metric_Pad1.20x1.40mm_HandSolder*%
%TO.CVal,4K7*%
%TO.CLbN,Resistor_SMD*%
%TO.CMnt,SMD*%
%TO.CRot,-90*%
X76930000Y-60404000D03*
D11*
X77875000Y-58559000D02*
X77875000Y-62249000D01*
X75985000Y-62249000D01*
X75985000Y-58559000D01*
X77875000Y-58559000D01*
D12*
%TO.P,R3,1*%
X76930000Y-61404000D03*
D13*
%TO.P,R3,2*%
X76930000Y-59404000D03*
%TD*%
D10*
%TO.C,R4*%
%TO.CFtp,R_0805_2012Metric_Pad1.20x1.40mm_HandSolder*%
%TO.CVal,4K7*%
%TO.CLbN,Resistor_SMD*%
%TO.CMnt,SMD*%
%TO.CRot,-90*%
X74434400Y-60404000D03*
D11*
X75379400Y-58559000D02*
X75379400Y-62249000D01*
X73489400Y-62249000D01*
X73489400Y-58559000D01*
X75379400Y-58559000D01*
D12*
%TO.P,R4,1*%
X74434400Y-61404000D03*
D13*
%TO.P,R4,2*%
X74434400Y-59404000D03*
%TD*%
D10*
%TO.C,R6*%
%TO.CFtp,R_0805_2012Metric_Pad1.20x1.40mm_HandSolder*%
%TO.CVal,4K7*%
%TO.CLbN,Resistor_SMD*%
%TO.CMnt,SMD*%
%TO.CRot,-90*%
X69354400Y-60404000D03*
D11*
X70299400Y-58559000D02*
X70299400Y-62249000D01*
X68409400Y-62249000D01*
X68409400Y-58559000D01*
X70299400Y-58559000D01*
D12*
%TO.P,R6,1*%
X69354400Y-61404000D03*
D13*
%TO.P,R6,2*%
X69354400Y-59404000D03*
%TD*%
D10*
%TO.C,R5*%
%TO.CFtp,R_0805_2012Metric_Pad1.20x1.40mm_HandSolder*%
%TO.CVal,4K7*%
%TO.CLbN,Resistor_SMD*%
%TO.CMnt,SMD*%
%TO.CRot,-90*%
X71894400Y-60404000D03*
D11*
X72839400Y-58559000D02*
X72839400Y-62249000D01*
X70949400Y-62249000D01*
X70949400Y-58559000D01*
X72839400Y-58559000D01*
D12*
%TO.P,R5,1*%
X71894400Y-61404000D03*
D13*
%TO.P,R5,2*%
X71894400Y-59404000D03*
%TD*%
D10*
%TO.C,R1*%
%TO.CFtp,R_0805_2012Metric_Pad1.20x1.40mm_HandSolder*%
%TO.CVal,4K7*%
%TO.CLbN,Resistor_SMD*%
%TO.CMnt,SMD*%
%TO.CRot,0*%
X72018000Y-86566000D03*
D11*
X73863000Y-85621000D02*
X73863000Y-87511000D01*
X70173000Y-87511000D01*
X70173000Y-85621000D01*
X73863000Y-85621000D01*
D12*
%TO.P,R1,1*%
X73018000Y-86566000D03*
D13*
%TO.P,R1,2*%
X71018000Y-86566000D03*
%TD*%
D10*
%TO.C,R2*%
%TO.CFtp,R_0805_2012Metric_Pad1.20x1.40mm_HandSolder*%
%TO.CVal,4K7*%
%TO.CLbN,Resistor_SMD*%
%TO.CMnt,SMD*%
%TO.CRot,0*%
X72018000Y-88852000D03*
D11*
X73863000Y-87907000D02*
X73863000Y-89797000D01*
X70173000Y-89797000D01*
X70173000Y-87907000D01*
X73863000Y-87907000D01*
D12*
%TO.P,R2,1*%
X73018000Y-88852000D03*
D13*
%TO.P,R2,2*%
X71018000Y-88852000D03*
%TD*%
D10*
%TO.C,G\u005Cu002A\u005Cu002A\u005Cu002A*%
%TO.CFtp,satnogs-logo-22x4*%
%TO.CVal,LOGO*%
%TO.CLbN,lsf-kicad-lib*%
%TO.CMnt,TH*%
%TO.CRot,0*%
X71500000Y-112675000D03*
%TD*%
%TO.C,FID5*%
%TO.CFtp,Fiducial_1mm_Mask2mm*%
%TO.CVal,Fiducial*%
%TO.CLbN,Fiducial*%
%TO.CMnt,SMD*%
%TO.CRot,180*%
X55000000Y-120000000D03*
D11*
X55277598Y-118783771D02*
X55490300Y-118852883D01*
X55687248Y-118958865D01*
X55862103Y-119098308D01*
X56009253Y-119266734D01*
X56123964Y-119458728D01*
X56202548Y-119668114D01*
X56242493Y-119888230D01*
X56244998Y-120000000D01*
X56242493Y-120111769D01*
X56202548Y-120331885D01*
X56123964Y-120541271D01*
X56009253Y-120733265D01*
X55862103Y-120901691D01*
X55687248Y-121041134D01*
X55490300Y-121147116D01*
X55277598Y-121216228D01*
X55055967Y-121246249D01*
X54832545Y-121236215D01*
X54614498Y-121186447D01*
X54408843Y-121098547D01*
X54222192Y-120975339D01*
X54060539Y-120820782D01*
X53929080Y-120639845D01*
X53832041Y-120438342D01*
X53772542Y-120222750D01*
X53752494Y-120000000D01*
X53772542Y-119777249D01*
X53832041Y-119561657D01*
X53929080Y-119360154D01*
X54060539Y-119179217D01*
X54222192Y-119024660D01*
X54408843Y-118901452D01*
X54614498Y-118813552D01*
X54832545Y-118763784D01*
X55055967Y-118753750D01*
X55277598Y-118783771D01*
D13*
%TO.P,FID5,*%
X55000000Y-120000000D03*
%TD*%
D10*
%TO.C,FID6*%
%TO.CFtp,Fiducial_1mm_Mask2mm*%
%TO.CVal,Fiducial*%
%TO.CLbN,Fiducial*%
%TO.CMnt,SMD*%
%TO.CRot,180*%
X145000000Y-120000000D03*
D11*
X145277598Y-118783771D02*
X145490300Y-118852883D01*
X145687248Y-118958865D01*
X145862103Y-119098308D01*
X146009253Y-119266734D01*
X146123964Y-119458728D01*
X146202548Y-119668114D01*
X146242493Y-119888230D01*
X146244998Y-120000000D01*
X146242493Y-120111769D01*
X146202548Y-120331885D01*
X146123964Y-120541271D01*
X146009253Y-120733265D01*
X145862103Y-120901691D01*
X145687248Y-121041134D01*
X145490300Y-121147116D01*
X145277598Y-121216228D01*
X145055967Y-121246249D01*
X144832545Y-121236215D01*
X144614498Y-121186447D01*
X144408843Y-121098547D01*
X144222192Y-120975339D01*
X144060539Y-120820782D01*
X143929080Y-120639845D01*
X143832041Y-120438342D01*
X143772542Y-120222750D01*
X143752494Y-120000000D01*
X143772542Y-119777249D01*
X143832041Y-119561657D01*
X143929080Y-119360154D01*
X144060539Y-119179217D01*
X144222192Y-119024660D01*
X144408843Y-118901452D01*
X144614498Y-118813552D01*
X144832545Y-118763784D01*
X145055967Y-118753750D01*
X145277598Y-118783771D01*
D13*
%TO.P,FID6,*%
X145000000Y-120000000D03*
%TD*%
D10*
%TO.C,FID8*%
%TO.CFtp,Fiducial_1mm_Mask2mm*%
%TO.CVal,Fiducial*%
%TO.CLbN,Fiducial*%
%TO.CMnt,SMD*%
%TO.CRot,180*%
X55000000Y-60000000D03*
D11*
X55277598Y-58783771D02*
X55490300Y-58852883D01*
X55687248Y-58958865D01*
X55862103Y-59098308D01*
X56009253Y-59266734D01*
X56123964Y-59458728D01*
X56202548Y-59668114D01*
X56242493Y-59888230D01*
X56244998Y-60000000D01*
X56242493Y-60111769D01*
X56202548Y-60331885D01*
X56123964Y-60541271D01*
X56009253Y-60733265D01*
X55862103Y-60901691D01*
X55687248Y-61041134D01*
X55490300Y-61147116D01*
X55277598Y-61216228D01*
X55055967Y-61246249D01*
X54832545Y-61236215D01*
X54614498Y-61186447D01*
X54408843Y-61098547D01*
X54222192Y-60975339D01*
X54060539Y-60820782D01*
X53929080Y-60639845D01*
X53832041Y-60438342D01*
X53772542Y-60222750D01*
X53752494Y-60000000D01*
X53772542Y-59777249D01*
X53832041Y-59561657D01*
X53929080Y-59360154D01*
X54060539Y-59179217D01*
X54222192Y-59024660D01*
X54408843Y-58901452D01*
X54614498Y-58813552D01*
X54832545Y-58763784D01*
X55055967Y-58753750D01*
X55277598Y-58783771D01*
D13*
%TO.P,FID8,*%
X55000000Y-60000000D03*
%TD*%
D10*
%TO.C,FID7*%
%TO.CFtp,Fiducial_1mm_Mask2mm*%
%TO.CVal,Fiducial*%
%TO.CLbN,Fiducial*%
%TO.CMnt,SMD*%
%TO.CRot,180*%
X145000000Y-60000000D03*
D11*
X145277598Y-58783771D02*
X145490300Y-58852883D01*
X145687248Y-58958865D01*
X145862103Y-59098308D01*
X146009253Y-59266734D01*
X146123964Y-59458728D01*
X146202548Y-59668114D01*
X146242493Y-59888230D01*
X146244998Y-60000000D01*
X146242493Y-60111769D01*
X146202548Y-60331885D01*
X146123964Y-60541271D01*
X146009253Y-60733265D01*
X145862103Y-60901691D01*
X145687248Y-61041134D01*
X145490300Y-61147116D01*
X145277598Y-61216228D01*
X145055967Y-61246249D01*
X144832545Y-61236215D01*
X144614498Y-61186447D01*
X144408843Y-61098547D01*
X144222192Y-60975339D01*
X144060539Y-60820782D01*
X143929080Y-60639845D01*
X143832041Y-60438342D01*
X143772542Y-60222750D01*
X143752494Y-60000000D01*
X143772542Y-59777249D01*
X143832041Y-59561657D01*
X143929080Y-59360154D01*
X144060539Y-59179217D01*
X144222192Y-59024660D01*
X144408843Y-58901452D01*
X144614498Y-58813552D01*
X144832545Y-58763784D01*
X145055967Y-58753750D01*
X145277598Y-58783771D01*
D13*
%TO.P,FID7,*%
X145000000Y-60000000D03*
%TD*%
M02*
